<svg xmlns="http://www.w3.org/2000/svg" xmlns:xlink="http://www.w3.org/1999/xlink" width="11" height="15" viewBox="0 0 11 15"><defs><path id="ae9za" d="M1338.375 413.146c-.523.308-.272 1.002.039 1.682a156.87 156.87 0 0 0 1.522 2.57c.778 1.053 1.199 1.538 1.699 1.242l2.115 3.574c-.599.37-3.584.596-6.721-4.854-2.978-5.171-1.387-7.455-.825-7.875zm6.663 8.316c.001.002-1.011.597-1.011.597l-2.121-3.582 1.012-.6a.46.46 0 0 1 .632.163c0 .002 1.652 2.784 1.652 2.784v.003a.461.461 0 0 1-.162.635zm-5.375-9.076l-1.012.597-2.168-3.663 1.012-.599c.219-.127.501-.06.632.163l1.7 2.865v.003c.124.21.069.495-.163.632z"/></defs><g><g transform="translate(-1335 -408)"><use fill="#b0abb3" xlink:href="#ae9za"/></g></g></svg>