<svg xmlns="http://www.w3.org/2000/svg" xmlns:xlink="http://www.w3.org/1999/xlink" width="40" height="40" viewBox="0 0 40 40"><defs><path id="tsuqa" d="M1370 583c11.046 0 20 8.954 20 20 0 11.045-8.954 20-20 20s-20-8.955-20-20c0-11.046 8.954-20 20-20z"/><path id="tsuqb" d="M1373.595 605.527l3.904 2.51-.828.827-.016.02c-2.087 2.086-6.357.961-9.934-2.615-3.577-3.576-4.7-7.846-2.615-9.932.007-.007.014-.011.02-.016l-.002-.003.828-.828 2.51 3.905-.745 2c.452.86 1.133 1.821 2.095 2.783.961.962 1.922 1.642 2.782 2.095zm-3.612-8.881v-1.156c4.144 0 7.515 3.371 7.515 7.515h-1.156a6.367 6.367 0 0 0-6.36-6.359zm0 2.313v-1.157a5.209 5.209 0 0 1 5.203 5.203h-1.157a4.05 4.05 0 0 0-4.046-4.046zm0 2.311v-1.155a2.894 2.894 0 0 1 2.89 2.89h-1.156c0-.955-.778-1.735-1.734-1.735z"/></defs><g><g transform="translate(-1350 -583)"><use fill="#fff" xlink:href="#tsuqa"/></g><g transform="translate(-1350 -583)"><use fill="#ff8a00" xlink:href="#tsuqb"/></g></g></svg>